<svg xmlns="http://www.w3.org/2000/svg" width="32" height="32" version="1">
  <path fill="#37a0f2" d="M30 16c0-7.756-6.244-14-14-14S2 8.244 2 16s6.244 14 14 14 14-6.244 14-14z"/>
  <path fill="#fff" opacity=".1" d="M16 2C8.244 2 2 8.244 2 16c0 .169.02.333.025.5C2.29 8.98 8.413 3 16 3s13.711 5.98 13.975 13.5c.006-.167.026-.331.026-.5 0-7.756-6.244-14-14-14z"/>
  <path opacity=".2" d="M2.025 16.5c-.006.167-.025.331-.025.5 0 7.756 6.244 14 14 14s14-6.244 14-14c0-.169-.02-.333-.025-.5C29.71 24.021 23.587 30 16 30 8.412 30 2.289 24.021 2.025 16.5z"/>
  <path opacity=".2" d="M16.697 23.886c-.362-.219-.593-.6-1.599-2.633-.556-1.126-1.086-2.126-1.177-2.222-.102-.108-.941-.554-2.194-1.166C9.251 16.657 9 16.465 9 15.78c0-.319.156-.625.4-.784.084-.055 2.673-.98 5.752-2.058 5.412-1.893 5.613-1.958 5.982-1.935.32.02.413.052.567.199.23.22.334.524.289.85-.049.35-3.933 11.324-4.078 11.518-.308.414-.83.55-1.215.317z"/>
  <path fill="#fff" d="M16.697 22.886c-.362-.219-.593-.6-1.599-2.633-.556-1.126-1.086-2.126-1.177-2.222-.102-.108-.941-.554-2.194-1.166C9.251 15.657 9 15.465 9 14.78c0-.319.156-.625.4-.784.084-.055 2.673-.98 5.752-2.058 5.412-1.893 5.613-1.958 5.982-1.935.32.02.413.052.567.199.23.22.334.524.289.85-.049.35-3.933 11.324-4.078 11.518-.308.414-.83.55-1.215.317z"/>
</svg>
